<svg width="219" height="34" viewBox="0 0 219 34" fill="none" xmlns="http://www.w3.org/2000/svg">
<path d="M10.32 7.92C12.096 7.92 13.704 8.328 15.144 9.144C16.584 9.936 17.712 11.064 18.528 12.528C19.344 13.992 19.752 15.66 19.752 17.532C19.752 19.428 19.344 21.108 18.528 22.572C17.712 24.036 16.584 25.176 15.144 25.992C13.728 26.784 12.12 27.18 10.32 27.18C8.784 27.18 7.392 26.868 6.144 26.244C4.92 25.596 3.912 24.66 3.12 23.436V33.984H0.564V8.064H3.012V11.808C3.78 10.56 4.788 9.6 6.036 8.928C7.308 8.256 8.736 7.92 10.32 7.92ZM10.14 24.912C11.46 24.912 12.66 24.612 13.74 24.012C14.82 23.388 15.66 22.512 16.26 21.384C16.884 20.256 17.196 18.972 17.196 17.532C17.196 16.092 16.884 14.82 16.26 13.716C15.66 12.588 14.82 11.712 13.74 11.088C12.66 10.464 11.46 10.152 10.14 10.152C8.796 10.152 7.584 10.464 6.504 11.088C5.448 11.712 4.608 12.588 3.984 13.716C3.384 14.82 3.084 16.092 3.084 17.532C3.084 18.972 3.384 20.256 3.984 21.384C4.608 22.512 5.448 23.388 6.504 24.012C7.584 24.612 8.796 24.912 10.14 24.912ZM42.0264 8.064V27H39.5784V23.544C38.9064 24.696 37.9824 25.596 36.8064 26.244C35.6304 26.868 34.2864 27.18 32.7744 27.18C30.3024 27.18 28.3464 26.496 26.9064 25.128C25.4904 23.736 24.7824 21.708 24.7824 19.044V8.064H27.3384V18.792C27.3384 20.784 27.8304 22.296 28.8144 23.328C29.7984 24.36 31.2024 24.876 33.0264 24.876C35.0184 24.876 36.5904 24.276 37.7424 23.076C38.8944 21.852 39.4704 20.16 39.4704 18V8.064H42.0264ZM58.9411 7.92C60.7171 7.92 62.3251 8.328 63.7651 9.144C65.2051 9.936 66.3331 11.064 67.1491 12.528C67.9651 13.992 68.3731 15.66 68.3731 17.532C68.3731 19.404 67.9651 21.072 67.1491 22.536C66.3331 24 65.2051 25.14 63.7651 25.956C62.3251 26.772 60.7171 27.18 58.9411 27.18C57.3571 27.18 55.9291 26.844 54.6571 26.172C53.4091 25.5 52.4011 24.528 51.6331 23.256V27H49.1851V0.287998H51.7411V11.664C52.5331 10.44 53.5411 9.516 54.7651 8.892C56.0131 8.244 57.4051 7.92 58.9411 7.92ZM58.7611 24.912C60.0811 24.912 61.2811 24.612 62.3611 24.012C63.4411 23.388 64.2811 22.512 64.8811 21.384C65.5051 20.256 65.8171 18.972 65.8171 17.532C65.8171 16.092 65.5051 14.808 64.8811 13.68C64.2811 12.552 63.4411 11.688 62.3611 11.088C61.2811 10.464 60.0811 10.152 58.7611 10.152C57.4171 10.152 56.2051 10.464 55.1251 11.088C54.0691 11.688 53.2291 12.552 52.6051 13.68C52.0051 14.808 51.7051 16.092 51.7051 17.532C51.7051 18.972 52.0051 20.256 52.6051 21.384C53.2291 22.512 54.0691 23.388 55.1251 24.012C56.2051 24.612 57.4171 24.912 58.7611 24.912ZM73.5835 0.287998H76.1395V27H73.5835V0.287998ZM83.2515 8.064H85.8075V27H83.2515V8.064ZM84.5475 3.924C84.0195 3.924 83.5755 3.744 83.2155 3.384C82.8555 3.024 82.6755 2.592 82.6755 2.088C82.6755 1.608 82.8555 1.188 83.2155 0.827998C83.5755 0.467998 84.0195 0.287998 84.5475 0.287998C85.0755 0.287998 85.5195 0.467998 85.8795 0.827998C86.2395 1.164 86.4195 1.572 86.4195 2.052C86.4195 2.58 86.2395 3.024 85.8795 3.384C85.5195 3.744 85.0755 3.924 84.5475 3.924ZM100.767 27.18C98.8955 27.18 97.2155 26.772 95.7275 25.956C94.2635 25.14 93.1115 24 92.2715 22.536C91.4315 21.048 91.0115 19.38 91.0115 17.532C91.0115 15.684 91.4315 14.028 92.2715 12.564C93.1115 11.1 94.2635 9.96 95.7275 9.144C97.2155 8.328 98.8955 7.92 100.767 7.92C102.399 7.92 103.851 8.244 105.123 8.892C106.419 9.516 107.439 10.44 108.183 11.664L106.275 12.96C105.651 12.024 104.859 11.328 103.899 10.872C102.939 10.392 101.895 10.152 100.767 10.152C99.3995 10.152 98.1635 10.464 97.0595 11.088C95.9795 11.688 95.1275 12.552 94.5035 13.68C93.9035 14.808 93.6035 16.092 93.6035 17.532C93.6035 18.996 93.9035 20.292 94.5035 21.42C95.1275 22.524 95.9795 23.388 97.0595 24.012C98.1635 24.612 99.3995 24.912 100.767 24.912C101.895 24.912 102.939 24.684 103.899 24.228C104.859 23.772 105.651 23.076 106.275 22.14L108.183 23.436C107.439 24.66 106.419 25.596 105.123 26.244C103.827 26.868 102.375 27.18 100.767 27.18ZM119.829 7.92C122.301 7.92 124.197 8.544 125.517 9.792C126.837 11.016 127.497 12.84 127.497 15.264V27H125.049V24.048C124.473 25.032 123.621 25.8 122.493 26.352C121.389 26.904 120.069 27.18 118.533 27.18C116.421 27.18 114.741 26.676 113.493 25.668C112.245 24.66 111.621 23.328 111.621 21.672C111.621 20.064 112.197 18.768 113.349 17.784C114.525 16.8 116.385 16.308 118.929 16.308H124.941V15.156C124.941 13.524 124.485 12.288 123.573 11.448C122.661 10.584 121.329 10.152 119.577 10.152C118.377 10.152 117.225 10.356 116.121 10.764C115.017 11.148 114.069 11.688 113.277 12.384L112.125 10.476C113.085 9.66 114.237 9.036 115.581 8.604C116.925 8.148 118.341 7.92 119.829 7.92ZM118.929 25.164C120.369 25.164 121.605 24.84 122.637 24.192C123.669 23.52 124.437 22.56 124.941 21.312V18.216H119.001C115.761 18.216 114.141 19.344 114.141 21.6C114.141 22.704 114.561 23.58 115.401 24.228C116.241 24.852 117.417 25.164 118.929 25.164ZM144.411 25.848C143.931 26.28 143.331 26.616 142.611 26.856C141.915 27.072 141.183 27.18 140.415 27.18C138.639 27.18 137.271 26.7 136.311 25.74C135.351 24.78 134.871 23.424 134.871 21.672V10.224H131.487V8.064H134.871V3.924H137.427V8.064H143.187V10.224H137.427V21.528C137.427 22.656 137.703 23.52 138.255 24.12C138.831 24.696 139.647 24.984 140.703 24.984C141.231 24.984 141.735 24.9 142.215 24.732C142.719 24.564 143.151 24.324 143.511 24.012L144.411 25.848ZM149.064 8.064H151.62V27H149.064V8.064ZM150.36 3.924C149.832 3.924 149.388 3.744 149.028 3.384C148.668 3.024 148.488 2.592 148.488 2.088C148.488 1.608 148.668 1.188 149.028 0.827998C149.388 0.467998 149.832 0.287998 150.36 0.287998C150.888 0.287998 151.332 0.467998 151.692 0.827998C152.052 1.164 152.232 1.572 152.232 2.052C152.232 2.58 152.052 3.024 151.692 3.384C151.332 3.744 150.888 3.924 150.36 3.924ZM166.472 27.18C164.648 27.18 163.004 26.772 161.54 25.956C160.076 25.116 158.924 23.964 158.084 22.5C157.244 21.036 156.824 19.38 156.824 17.532C156.824 15.684 157.244 14.028 158.084 12.564C158.924 11.1 160.076 9.96 161.54 9.144C163.004 8.328 164.648 7.92 166.472 7.92C168.296 7.92 169.94 8.328 171.404 9.144C172.868 9.96 174.008 11.1 174.824 12.564C175.664 14.028 176.084 15.684 176.084 17.532C176.084 19.38 175.664 21.036 174.824 22.5C174.008 23.964 172.868 25.116 171.404 25.956C169.94 26.772 168.296 27.18 166.472 27.18ZM166.472 24.912C167.816 24.912 169.016 24.612 170.072 24.012C171.152 23.388 171.992 22.512 172.592 21.384C173.192 20.256 173.492 18.972 173.492 17.532C173.492 16.092 173.192 14.808 172.592 13.68C171.992 12.552 171.152 11.688 170.072 11.088C169.016 10.464 167.816 10.152 166.472 10.152C165.128 10.152 163.916 10.464 162.836 11.088C161.78 11.688 160.94 12.552 160.316 13.68C159.716 14.808 159.416 16.092 159.416 17.532C159.416 18.972 159.716 20.256 160.316 21.384C160.94 22.512 161.78 23.388 162.836 24.012C163.916 24.612 165.128 24.912 166.472 24.912ZM190.95 7.92C193.326 7.92 195.21 8.616 196.602 10.008C198.018 11.376 198.726 13.38 198.726 16.02V27H196.17V16.272C196.17 14.304 195.678 12.804 194.694 11.772C193.71 10.74 192.306 10.224 190.482 10.224C188.442 10.224 186.822 10.836 185.622 12.06C184.446 13.26 183.858 14.928 183.858 17.064V27H181.302V8.064H183.75V11.556C184.446 10.404 185.406 9.516 186.63 8.892C187.878 8.244 189.318 7.92 190.95 7.92ZM210.742 27.18C209.206 27.18 207.73 26.964 206.314 26.532C204.922 26.076 203.83 25.512 203.038 24.84L204.19 22.824C204.982 23.448 205.978 23.964 207.178 24.372C208.378 24.756 209.626 24.948 210.922 24.948C212.65 24.948 213.922 24.684 214.738 24.156C215.578 23.604 215.998 22.836 215.998 21.852C215.998 21.156 215.77 20.616 215.314 20.232C214.858 19.824 214.282 19.524 213.586 19.332C212.89 19.116 211.966 18.912 210.814 18.72C209.278 18.432 208.042 18.144 207.106 17.856C206.17 17.544 205.366 17.028 204.694 16.308C204.046 15.588 203.722 14.592 203.722 13.32C203.722 11.736 204.382 10.44 205.702 9.432C207.022 8.424 208.858 7.92 211.21 7.92C212.434 7.92 213.658 8.088 214.882 8.424C216.106 8.736 217.114 9.156 217.906 9.684L216.79 11.736C215.23 10.656 213.37 10.116 211.21 10.116C209.578 10.116 208.342 10.404 207.502 10.98C206.686 11.556 206.278 12.312 206.278 13.248C206.278 13.968 206.506 14.544 206.962 14.976C207.442 15.408 208.03 15.732 208.726 15.948C209.422 16.14 210.382 16.344 211.606 16.56C213.118 16.848 214.33 17.136 215.242 17.424C216.154 17.712 216.934 18.204 217.582 18.9C218.23 19.596 218.554 20.556 218.554 21.78C218.554 23.436 217.858 24.756 216.466 25.74C215.098 26.7 213.19 27.18 210.742 27.18Z" fill="#323264"/>
</svg>
