<svg width="142" height="28" viewBox="0 0 142 28" fill="none" xmlns="http://www.w3.org/2000/svg">
<path d="M8.64 27.18C7.104 27.18 5.628 26.964 4.212 26.532C2.82 26.076 1.728 25.512 0.936 24.84L2.088 22.824C2.88 23.448 3.876 23.964 5.076 24.372C6.276 24.756 7.524 24.948 8.82 24.948C10.548 24.948 11.82 24.684 12.636 24.156C13.476 23.604 13.896 22.836 13.896 21.852C13.896 21.156 13.668 20.616 13.212 20.232C12.756 19.824 12.18 19.524 11.484 19.332C10.788 19.116 9.864 18.912 8.712 18.72C7.176 18.432 5.94 18.144 5.004 17.856C4.068 17.544 3.264 17.028 2.592 16.308C1.944 15.588 1.62 14.592 1.62 13.32C1.62 11.736 2.28 10.44 3.6 9.432C4.92 8.424 6.756 7.92 9.108 7.92C10.332 7.92 11.556 8.088 12.78 8.424C14.004 8.736 15.012 9.156 15.804 9.684L14.688 11.736C13.128 10.656 11.268 10.116 9.108 10.116C7.476 10.116 6.24 10.404 5.4 10.98C4.584 11.556 4.176 12.312 4.176 13.248C4.176 13.968 4.404 14.544 4.86 14.976C5.34 15.408 5.928 15.732 6.624 15.948C7.32 16.14 8.28 16.344 9.504 16.56C11.016 16.848 12.228 17.136 13.14 17.424C14.052 17.712 14.832 18.204 15.48 18.9C16.128 19.596 16.452 20.556 16.452 21.78C16.452 23.436 15.756 24.756 14.364 25.74C12.996 26.7 11.088 27.18 8.64 27.18ZM37.6653 18.324H21.8253C21.9693 20.292 22.7253 21.888 24.0933 23.112C25.4613 24.312 27.1893 24.912 29.2773 24.912C30.4533 24.912 31.5333 24.708 32.5173 24.3C33.5013 23.868 34.3533 23.244 35.0733 22.428L36.5133 24.084C35.6733 25.092 34.6173 25.86 33.3453 26.388C32.0973 26.916 30.7173 27.18 29.2053 27.18C27.2613 27.18 25.5333 26.772 24.0213 25.956C22.5333 25.116 21.3693 23.964 20.5293 22.5C19.6893 21.036 19.2693 19.38 19.2693 17.532C19.2693 15.684 19.6653 14.028 20.4573 12.564C21.2733 11.1 22.3773 9.96 23.7693 9.144C25.1853 8.328 26.7693 7.92 28.5213 7.92C30.2733 7.92 31.8453 8.328 33.2373 9.144C34.6293 9.96 35.7213 11.1 36.5133 12.564C37.3053 14.004 37.7013 15.66 37.7013 17.532L37.6653 18.324ZM28.5213 10.116C26.6973 10.116 25.1613 10.704 23.9133 11.88C22.6893 13.032 21.9933 14.544 21.8253 16.416H35.2533C35.0853 14.544 34.3773 13.032 33.1293 11.88C31.9053 10.704 30.3693 10.116 28.5213 10.116ZM45.3518 11.772C45.9518 10.5 46.8398 9.54 48.0158 8.892C49.2158 8.244 50.6918 7.92 52.4438 7.92V10.404L51.8318 10.368C49.8398 10.368 48.2798 10.98 47.1518 12.204C46.0238 13.428 45.4598 15.144 45.4598 17.352V27H42.9038V8.064H45.3518V11.772ZM73.7924 8.064L65.3684 27H62.7404L54.3524 8.064H57.0164L64.1084 24.192L71.2724 8.064H73.7924ZM77.3921 8.064H79.9481V27H77.3921V8.064ZM78.6881 3.924C78.1601 3.924 77.7161 3.744 77.3561 3.384C76.9961 3.024 76.8161 2.592 76.8161 2.088C76.8161 1.608 76.9961 1.188 77.3561 0.827998C77.7161 0.467998 78.1601 0.287998 78.6881 0.287998C79.2161 0.287998 79.6601 0.467998 80.0201 0.827998C80.3801 1.164 80.5601 1.572 80.5601 2.052C80.5601 2.58 80.3801 3.024 80.0201 3.384C79.6601 3.744 79.2161 3.924 78.6881 3.924ZM94.9081 27.18C93.0361 27.18 91.3561 26.772 89.8681 25.956C88.4041 25.14 87.2521 24 86.4121 22.536C85.5721 21.048 85.1521 19.38 85.1521 17.532C85.1521 15.684 85.5721 14.028 86.4121 12.564C87.2521 11.1 88.4041 9.96 89.8681 9.144C91.3561 8.328 93.0361 7.92 94.9081 7.92C96.5401 7.92 97.9921 8.244 99.2641 8.892C100.56 9.516 101.58 10.44 102.324 11.664L100.416 12.96C99.7921 12.024 99.0001 11.328 98.0401 10.872C97.0801 10.392 96.0361 10.152 94.9081 10.152C93.5401 10.152 92.3041 10.464 91.2001 11.088C90.1201 11.688 89.2681 12.552 88.6441 13.68C88.0441 14.808 87.7441 16.092 87.7441 17.532C87.7441 18.996 88.0441 20.292 88.6441 21.42C89.2681 22.524 90.1201 23.388 91.2001 24.012C92.3041 24.612 93.5401 24.912 94.9081 24.912C96.0361 24.912 97.0801 24.684 98.0401 24.228C99.0001 23.772 99.7921 23.076 100.416 22.14L102.324 23.436C101.58 24.66 100.56 25.596 99.2641 26.244C97.9681 26.868 96.5161 27.18 94.9081 27.18ZM123.517 18.324H107.677C107.821 20.292 108.577 21.888 109.945 23.112C111.313 24.312 113.041 24.912 115.129 24.912C116.305 24.912 117.385 24.708 118.369 24.3C119.353 23.868 120.205 23.244 120.925 22.428L122.365 24.084C121.525 25.092 120.469 25.86 119.197 26.388C117.949 26.916 116.569 27.18 115.057 27.18C113.113 27.18 111.385 26.772 109.873 25.956C108.385 25.116 107.221 23.964 106.381 22.5C105.541 21.036 105.121 19.38 105.121 17.532C105.121 15.684 105.517 14.028 106.309 12.564C107.125 11.1 108.229 9.96 109.621 9.144C111.037 8.328 112.621 7.92 114.373 7.92C116.125 7.92 117.697 8.328 119.089 9.144C120.481 9.96 121.573 11.1 122.365 12.564C123.157 14.004 123.553 15.66 123.553 17.532L123.517 18.324ZM114.373 10.116C112.549 10.116 111.013 10.704 109.765 11.88C108.541 13.032 107.845 14.544 107.677 16.416H121.105C120.937 14.544 120.229 13.032 118.981 11.88C117.757 10.704 116.221 10.116 114.373 10.116ZM133.831 27.18C132.295 27.18 130.819 26.964 129.403 26.532C128.011 26.076 126.919 25.512 126.127 24.84L127.279 22.824C128.071 23.448 129.067 23.964 130.267 24.372C131.467 24.756 132.715 24.948 134.011 24.948C135.739 24.948 137.011 24.684 137.827 24.156C138.667 23.604 139.087 22.836 139.087 21.852C139.087 21.156 138.859 20.616 138.403 20.232C137.947 19.824 137.371 19.524 136.675 19.332C135.979 19.116 135.055 18.912 133.903 18.72C132.367 18.432 131.131 18.144 130.195 17.856C129.259 17.544 128.455 17.028 127.783 16.308C127.135 15.588 126.811 14.592 126.811 13.32C126.811 11.736 127.471 10.44 128.791 9.432C130.111 8.424 131.947 7.92 134.299 7.92C135.523 7.92 136.747 8.088 137.971 8.424C139.195 8.736 140.203 9.156 140.995 9.684L139.879 11.736C138.319 10.656 136.459 10.116 134.299 10.116C132.667 10.116 131.431 10.404 130.591 10.98C129.775 11.556 129.367 12.312 129.367 13.248C129.367 13.968 129.595 14.544 130.051 14.976C130.531 15.408 131.119 15.732 131.815 15.948C132.511 16.14 133.471 16.344 134.695 16.56C136.207 16.848 137.419 17.136 138.331 17.424C139.243 17.712 140.023 18.204 140.671 18.9C141.319 19.596 141.643 20.556 141.643 21.78C141.643 23.436 140.947 24.756 139.555 25.74C138.187 26.7 136.279 27.18 133.831 27.18Z" fill="white"/>
</svg>
